<?xml version="1.0" standalone="no"?>
<!DOCTYPE svg PUBLIC "-//W3C//DTD SVG 20010904//EN" "http://www.w3.org/TR/2001/REC-SVG-20010904/DTD/svg10.dtd">
<svg version="1.0" xmlns="http://www.w3.org/2000/svg" width="600.000000pt" height="600.000000pt" viewBox="0 0 600.000000 600.000000" preserveAspectRatio="xMidYMid meet">
	<g transform="translate(0.000000,600.000000) scale(0.100000,-0.100000)" fill="#000000" stroke="none">
		<path d="M2932 5804 c-18 -9 -43 -31 -55 -48 -22 -30 -22 -37 -25 -394 -3
				 -402 -2 -409 62 -455 43 -31 129 -31 172 0 63 45 64 54 64 443 0 388 -1 398
				 -63 442 -39 28 -112 34 -155 12z"/>
		<path d="M892 5160 c-66 -40 -90 -124 -57 -194 9 -18 127 -143 263 -278 265
				 -264 272 -270 357 -254 46 9 102 65 111 111 16 85 10 92 -254 357 -135 136
				 -260 254 -278 263 -44 21 -103 19 -142 -5z"/>
		<path d="M4964 5164 c-17 -8 -141 -126 -277 -262 -263 -265 -269 -272 -253
				 -357 9 -46 65 -102 111 -111 85 -16 92 -10 357 254 136 135 255 261 264 280
				 59 124 -78 257 -202 196z"/>
		<path d="M2810 4719 c-623 -77 -1149 -468 -1392 -1034 -98 -228 -138 -427
				 -138 -685 0 -258 40 -457 138 -685 230 -534 714 -916 1297 -1021 139 -25 441
				 -25 580 0 506 91 939 390 1200 828 156 262 235 557 235 878 0 470 -172 888
				 -499 1218 -251 253 -581 425 -931 487 -113 19 -384 28 -490 14z m482 -319
				 c580 -122 1023 -581 1123 -1164 20 -116 20 -356 0 -472 -78 -450 -364 -837
				 -771 -1042 -105 -53 -233 -97 -357 -124 -84 -18 -134 -22 -282 -22 -201 0
				 -307 17 -472 75 -491 174 -849 599 -938 1113 -20 116 -20 356 0 472 78 450
				 364 837 771 1042 139 70 299 119 464 142 103 14 351 4 462 -20z"/>
		<path d="M4962 3144 c-52 -27 -77 -70 -77 -134 0 -41 6 -63 22 -86 43 -59 54
				 -61 439 -69 391 -8 400 -7 447 59 31 43 31 129 0 172 -43 60 -54 61 -443 68
				 -321 6 -358 5 -388 -10z"/>
		<path d="M262 3134 c-52 -27 -77 -70 -77 -134 0 -41 6 -63 22 -86 43 -59 54
				 -61 439 -69 391 -8 400 -7 447 59 31 43 31 129 0 172 -43 60 -54 61 -443 68
				 -321 6 -358 5 -388 -10z"/>
		<path d="M1354 1554 c-17 -8 -141 -126 -277 -262 -263 -265 -269 -272 -253
				 -357 9 -46 65 -102 111 -111 85 -16 92 -10 357 254 136 135 255 261 264 280
				 59 124 -78 257 -202 196z"/>
		<path d="M4512 1553 c-69 -34 -101 -126 -68 -195 9 -19 128 -145 264 -280 265
				 -264 272 -270 357 -254 46 9 102 65 111 111 16 85 10 92 -254 357 -135 136
				 -260 254 -278 263 -41 19 -90 19 -132 -2z"/>
		<path d="M2932 1104 c-18 -9 -43 -31 -55 -48 -22 -30 -22 -37 -25 -394 -3
				 -402 -2 -409 62 -455 43 -31 129 -31 172 0 63 45 64 54 64 443 0 388 -1 398
				 -63 442 -39 28 -112 34 -155 12z"/>
	</g>
</svg>
